 <svg
              id="Layer_1"
              xmlns="http://www.w3.org/2000/svg"
              x="0px"
              y="0px"
              width="100%"
              viewBox="0 0 784 992"
              enableBackground="new 0 0 784 992"
            >
              <path
                fill="#eb781a"
                opacity="1.000000"
                stroke="none"
                d="
M723.111816,490.878235 
	C726.316528,504.072113 724.751648,517.061829 725.255249,529.943909 
	C725.728027,542.039062 723.167358,553.722351 721.067322,565.490051 
	C718.767456,578.377014 716.319824,591.232788 713.228882,603.955811 
	C711.577393,610.753479 709.334656,617.382751 706.603760,623.809082 
	C705.361328,626.732849 704.428833,629.729248 703.346924,632.691467 
	C699.989075,641.884827 697.844421,651.594788 690.939758,659.244812 
	C688.954895,661.443909 688.092896,664.843018 687.249329,667.841919 
	C685.979248,672.357483 684.821228,676.515808 680.554138,679.593506 
	C678.473633,681.094116 677.941895,684.776733 676.772522,687.498962 
	C673.979675,694.000305 668.556152,698.662964 664.934692,704.618103 
	C654.006104,722.589111 638.848022,737.169067 624.137207,751.741150 
	C615.389343,760.406494 606.349976,769.515198 594.965820,775.566101 
	C588.173523,779.176331 582.507324,784.842224 575.987915,789.046021 
	C569.240051,793.397278 561.832581,796.736267 555.148376,801.172974 
	C546.300171,807.045837 536.013733,809.629639 526.715454,814.462891 
	C521.663452,817.088745 515.835754,818.201233 510.399384,820.113953 
	C504.337433,822.246765 498.563629,825.264038 491.988647,825.757446 
	C480.791077,826.597778 470.847961,832.341614 459.728424,833.858215 
	C451.319366,835.005066 442.821899,834.401062 434.469452,836.201599 
	C414.715515,840.460144 394.881256,839.294006 375.050049,836.501282 
	C365.997009,835.226379 356.834412,834.606750 347.856934,832.954285 
	C339.754761,831.462891 331.912537,828.573669 323.816620,827.030273 
	C316.068054,825.553040 309.261963,821.186340 301.502686,820.159241 
	C293.780304,819.136963 287.938599,814.193298 281.120911,811.321899 
	C280.525269,811.071045 280.076508,810.333557 279.486542,810.227417 
	C270.076996,808.532715 262.888458,802.184265 254.502075,798.356262 
	C249.723343,796.174988 244.828171,794.440735 241.593765,789.563782 
	C240.148376,787.384399 236.720413,786.201843 233.954865,785.275391 
	C225.530380,782.453064 219.468353,776.286316 212.456375,771.359924 
	C206.366409,767.081299 201.006027,762.012207 195.547012,757.214294 
	C189.235428,751.666931 182.571289,746.230530 177.205551,739.680664 
	C166.691467,726.846252 155.357208,714.591248 146.258484,700.721924 
	C142.206848,694.545959 137.584976,688.444031 135.476013,680.917358 
	C134.525528,677.525208 131.101929,674.878540 129.042618,671.734985 
	C122.263054,661.385742 117.832916,649.892639 113.350380,638.463135 
	C110.197021,630.422852 107.162407,622.291016 104.822899,613.989258 
	C102.491585,605.716614 99.005318,597.637573 98.872604,588.876770 
	C98.825089,585.740112 95.915947,584.259155 95.635910,581.222473 
	C95.239502,576.923828 94.652145,572.666077 94.715385,568.320862 
	C94.825676,560.740967 91.149437,553.814148 91.418770,545.962280 
	C91.630852,539.779358 90.829086,533.380371 90.775810,527.074219 
	C90.671661,514.746155 90.174286,502.380615 90.918808,490.095978 
	C91.996246,472.318512 95.024384,454.753845 100.408043,437.731445 
	C103.271988,428.675934 104.102066,419.115509 107.685814,410.272614 
	C113.807625,395.166901 119.224205,379.622131 127.339584,365.551758 
	C134.892090,352.457275 142.638962,339.322906 151.840271,327.211090 
	C156.930923,320.510162 164.286652,315.325378 168.530579,308.535065 
	C174.665344,298.719421 184.680145,292.696228 190.316376,282.666107 
	C194.304092,275.569611 201.307785,271.374390 208.613312,268.014343 
	C209.917236,267.414642 210.750702,266.620026 211.542633,265.501556 
	C213.386139,262.897919 215.301163,260.387970 219.104736,260.643372 
	C219.936829,260.699280 221.349045,260.019379 221.614075,259.336700 
	C223.367493,254.820114 227.717896,254.041168 231.353989,252.229691 
	C233.599960,251.110779 235.845795,250.034607 237.099167,247.644653 
	C237.904892,246.108307 239.314774,245.283020 240.854706,244.512146 
	C250.155228,239.856445 259.565491,235.514771 268.512299,230.051620 
	C281.538116,222.097717 296.435547,218.118195 310.827728,213.350494 
	C321.593842,209.783951 332.862213,207.681900 343.975281,205.238495 
	C348.830719,204.170959 353.977661,204.358429 358.782532,203.145370 
	C372.588715,199.659836 386.590881,199.816345 400.677338,199.409576 
	C413.837799,199.029556 427.045135,198.439072 440.039459,199.916809 
	C448.904480,200.924942 458.162292,200.386398 466.752747,204.326950 
	C469.842163,205.744095 474.096588,204.368118 477.564911,205.258270 
	C489.868195,208.415909 502.374786,211.164566 514.231079,215.600372 
	C538.364197,224.629288 561.377869,236.024399 583.290039,249.794495 
	C597.470398,258.705811 610.345093,269.010345 622.797791,280.071350 
	C634.053772,290.069458 644.479553,300.752472 654.097778,312.355347 
	C657.953003,317.006195 660.988831,322.013702 664.387695,326.875214 
	C667.366760,331.136047 671.995056,334.227112 674.564026,338.989838 
	C680.960022,350.847870 688.128540,362.230316 693.772339,374.585754 
	C696.308411,380.137817 698.594421,386.140076 701.794189,391.601715 
	C704.669189,396.509033 705.707764,402.498718 707.513428,408.024963 
	C715.218750,431.606018 721.730347,455.429993 722.374817,480.465729 
	C722.460266,483.786743 722.859436,487.099670 723.111816,490.878235 
M648.801392,665.203308 
	C646.435913,669.805481 643.420410,674.062073 640.914429,678.503723 
	C638.134155,683.431519 635.958496,688.721375 633.131531,693.744202 
	C631.091003,697.369690 627.606018,699.269653 625.799683,702.857300 
	C623.423096,707.577759 620.469421,712.182373 616.512695,715.660339 
	C607.004089,724.018494 597.799133,732.845642 586.210571,738.492188 
	C584.156433,739.493042 582.488159,741.605896 580.379211,742.112122 
	C574.777771,743.456665 569.108398,744.692505 563.517090,745.988281 
	C547.265930,749.754517 530.718506,751.355164 514.253235,752.890747 
	C489.833954,755.168152 465.529114,757.787537 441.495087,762.763672 
	C435.676544,763.968323 429.722687,764.841797 423.796936,765.107666 
	C418.774139,765.333069 413.864075,766.095520 408.978760,766.961121 
	C400.786652,768.412781 393.079407,767.260132 386.013397,763.074951 
	C377.454773,758.005737 369.906036,751.546021 362.125183,745.357483 
	C354.672638,739.430054 346.979004,733.695251 338.673462,728.762878 
	C328.333466,722.622314 318.730988,715.240906 308.802124,708.406860 
	C301.695129,703.515076 294.297913,699.043884 287.168457,694.223938 
	C281.128571,690.140625 275.906067,684.881287 268.650024,682.767578 
	C266.823761,682.235596 265.674591,680.879333 264.451324,679.429993 
	C260.593933,674.859375 256.655792,669.734985 251.400375,667.345581 
	C244.702469,664.300476 241.999878,657.902405 237.061264,653.496887 
	C235.136032,651.779480 232.652115,649.461121 231.889359,646.399536 
	C228.827728,634.110718 226.473251,621.812500 226.700729,608.976501 
	C227.140457,584.163452 226.874619,559.338318 225.675781,534.537476 
	C225.612350,533.225403 225.756989,531.614319 225.074936,530.669006 
	C221.195023,525.291626 224.055664,519.093567 221.921829,513.621033 
	C226.090500,512.015442 229.330231,512.837524 232.265854,514.450439 
	C239.721436,518.546570 247.672058,522.089539 252.860748,529.253723 
	C255.270508,532.580933 258.072357,536.103760 258.989960,539.945496 
	C262.207733,553.417603 266.009369,566.801575 267.826630,580.558228 
	C268.880402,588.535339 272.203827,595.853271 273.649811,603.752014 
	C274.473297,608.250305 277.257172,612.970825 279.678711,617.854065 
	C281.705383,615.565002 281.528564,613.716003 280.882935,612.006958 
	C276.872467,601.390930 276.356262,590.013550 274.014252,579.049072 
	C271.995758,569.599243 272.210266,559.587219 273.591888,549.732056 
	C274.788055,541.199646 277.007446,532.811340 276.806549,524.047424 
	C276.527802,511.888794 276.782227,499.717957 276.802979,487.552338 
	C276.806396,485.549194 276.525543,483.285614 278.362183,482.024353 
	C280.464172,480.580902 282.016266,482.582977 283.699249,483.517670 
	C288.632965,486.257843 293.358887,489.152191 297.577728,493.077484 
	C306.669769,501.536682 312.774994,511.643280 314.399719,523.846252 
	C315.979309,535.710693 315.463287,547.750488 315.293243,559.726196 
	C315.267609,561.532104 315.039978,563.378784 316.288788,565.001648 
	C318.758118,568.210815 319.063904,571.968201 319.205963,575.879822 
	C319.653992,588.213501 323.619385,599.392822 330.702484,609.798035 
	C331.840088,608.295959 331.614990,607.032959 331.114929,605.775208 
	C328.920715,600.256165 328.328949,594.534180 328.685577,588.636414 
	C329.167603,580.664551 329.146393,572.647217 329.966949,564.714172 
	C331.298706,551.838989 332.516693,538.911133 336.223053,526.414795 
	C336.836060,524.348145 337.498993,522.231140 340.189392,521.819153 
	C343.137817,521.367615 344.859222,522.837524 346.235840,525.200073 
	C348.767975,529.545715 351.997986,533.369141 355.514465,536.936157 
	C357.924927,539.381287 359.537628,542.209900 360.346680,545.527405 
	C363.621857,558.957581 367.000031,572.366699 366.016327,586.398010 
	C365.897644,588.091309 365.575653,589.967468 366.820282,591.835632 
	C368.151093,590.643188 368.194458,589.282410 368.617737,588.077332 
	C370.333008,583.193909 370.914307,578.067200 371.973938,573.042053 
	C372.727417,569.468811 375.352875,567.826538 378.725372,567.265747 
	C381.718384,566.768127 385.158997,566.179016 386.958313,569.170288 
	C390.095337,574.385437 393.084290,579.775818 395.343018,585.410400 
	C397.948242,591.909424 398.055145,599.075745 399.000671,605.944336 
	C401.553894,624.491150 400.055573,643.210876 400.487885,661.854248 
	C400.528900,663.622620 400.387299,665.126404 398.376129,665.865906 
	C393.656860,667.600769 389.008240,665.066528 389.035645,660.124756 
	C389.116974,645.460938 387.460693,630.897095 386.917419,616.274353 
	C386.568176,606.874329 386.901459,597.403259 384.087158,588.009460 
	C381.927155,589.271484 380.543976,590.565613 380.456543,592.809814 
	C379.996765,604.609741 379.145874,616.411621 379.204193,628.208984 
	C379.251373,637.762573 376.587463,647.368286 379.722351,656.925903 
	C380.462067,659.181030 379.094452,661.164856 376.275574,661.323059 
	C373.850800,661.459167 371.780701,660.895996 371.769684,657.981567 
	C371.739990,650.128113 366.822845,643.752319 365.262512,636.287659 
	C364.552887,632.892883 363.735199,629.165466 362.278931,625.908813 
	C358.660736,617.817688 360.261230,608.465820 355.871338,600.618347 
	C355.724579,600.355957 355.780823,599.960449 355.796539,599.629578 
	C356.248474,590.119385 354.965485,580.665039 354.867950,571.179077 
	C354.769928,561.649231 352.214661,552.835266 347.977936,544.418823 
	C347.498810,543.467041 347.237732,542.068909 345.215790,542.652466 
	C345.215790,549.712036 345.193848,556.844299 345.220245,563.976379 
	C345.278015,579.598877 345.297241,595.100403 348.787537,610.607178 
	C351.321838,621.866638 351.907227,633.697510 351.155518,645.401855 
	C351.002136,647.790222 350.667236,650.154236 347.788940,650.877686 
	C345.154938,651.539917 342.566925,651.171021 341.029602,648.884521 
	C335.955414,641.337585 330.565887,633.812317 326.149750,626.076416 
	C322.703705,620.039795 317.998505,614.849487 314.761169,608.562805 
	C310.417908,600.128540 307.016296,591.735535 305.805634,582.532227 
	C303.678192,566.359314 303.119843,550.048889 302.522949,533.755554 
	C302.113190,522.569885 296.034485,513.523865 291.890289,503.651367 
	C289.449829,504.793365 289.953857,506.477570 289.975433,507.860168 
	C290.349731,531.845459 290.767029,555.830017 291.191437,579.814453 
	C291.211975,580.975220 291.177338,582.198059 291.516968,583.282837 
	C295.883179,597.228210 298.053070,611.695435 301.707489,625.802063 
	C302.924255,630.499023 305.532104,634.284973 310.344452,636.756348 
	C315.105713,639.201538 320.118408,641.623291 323.429382,646.372620 
	C324.722931,648.228088 325.659241,649.823853 324.375824,651.725647 
	C323.054413,653.683777 321.268097,652.588318 319.451141,652.105530 
	C307.174042,648.842896 295.991425,642.873962 284.498718,637.757507 
	C280.111450,635.804321 274.930389,634.137451 271.994873,629.938721 
	C265.699554,620.934448 261.957672,610.781982 260.884613,599.861084 
	C260.467010,595.610718 259.493195,591.680725 257.732452,587.910522 
	C256.663391,585.621460 255.882965,583.342468 255.494812,580.825134 
	C254.075638,571.621338 252.243088,562.475708 251.034195,553.246948 
	C250.298065,547.627258 248.027145,542.716858 245.502838,537.850098 
	C244.200272,535.338806 242.215683,533.423889 239.077881,532.882812 
	C237.235672,537.502625 239.666641,541.412598 239.906967,545.465942 
	C241.286240,568.728699 243.193527,591.969910 244.019150,615.250427 
	C244.303635,623.272278 246.941086,630.312500 250.357544,636.831543 
	C255.285477,646.234497 262.574127,654.200928 270.721191,661.153870 
	C278.767822,668.020996 292.397125,670.982239 299.010895,665.413696 
	C307.198242,658.520386 316.772156,659.004150 325.901672,657.677246 
	C341.226288,655.450012 355.420013,661.668701 369.835205,665.665283 
	C371.074829,666.009033 372.332092,666.769958 373.258514,667.669373 
	C375.722992,670.062195 378.834991,670.516907 381.970673,670.914429 
	C397.134430,672.836487 410.361816,665.780823 423.565338,660.512085 
	C430.267975,657.837402 437.104187,654.093018 443.647034,650.334595 
	C454.067963,644.348511 465.586029,640.455811 477.018066,636.735779 
	C491.065521,632.164673 505.079681,627.261169 520.365295,628.766724 
	C528.384460,629.556641 536.429321,628.775269 544.548096,630.423096 
	C551.451965,631.824341 558.122131,633.000366 564.260437,636.672241 
	C566.992798,638.306763 570.887695,639.182068 572.898560,636.214111 
	C579.178833,626.944397 587.936096,619.494141 592.209778,608.686707 
	C594.207703,603.634277 595.797913,598.020752 599.074524,593.813721 
	C603.932556,587.576172 605.289917,579.822388 609.634644,573.366211 
	C613.050049,568.290894 614.727417,562.001709 617.036133,556.194946 
	C621.590942,544.739258 625.321716,533.084106 628.917847,521.328735 
	C630.640381,515.698181 630.650818,509.752350 632.380859,504.273193 
	C639.672974,481.178436 638.244385,457.479126 637.582031,433.884796 
	C637.106934,416.959808 632.622742,400.737549 627.648621,384.561707 
	C624.401794,374.003204 620.230225,363.902771 615.300781,354.195099 
	C611.933960,347.564758 610.192261,339.604187 603.215637,335.101379 
	C602.343506,334.538483 602.011658,333.149902 601.408630,332.156555 
	C597.800049,326.212219 593.402222,320.694702 588.976685,315.516876 
	C585.023682,310.891876 580.014526,306.758179 575.166931,302.725067 
	C564.522034,293.868622 552.646362,286.925842 540.659180,280.209229 
	C534.067078,276.515594 527.046753,273.563416 520.589233,269.577118 
	C519.002319,268.597504 517.286621,267.326782 518.139709,265.217560 
	C519.007446,263.072327 521.219971,263.635498 522.985229,263.804657 
	C524.116272,263.913055 525.330200,264.228333 526.297791,264.803070 
	C535.673035,270.371918 545.971802,273.644409 556.203308,277.141144 
	C561.365295,278.905304 566.730286,280.609619 569.561707,286.044586 
	C569.897644,286.689392 570.748779,287.353668 571.452637,287.474213 
	C578.471924,288.676483 583.442627,293.255981 588.872986,297.327362 
	C592.251038,299.859985 594.538147,303.580688 598.031433,305.627319 
	C607.638611,311.255920 613.447754,320.521729 619.780762,328.900055 
	C625.960693,337.075958 631.631042,346.107727 635.064453,355.934357 
	C638.329041,365.278046 642.814819,374.111664 645.616821,383.681122 
	C647.190857,389.056793 648.640198,394.363098 649.873779,399.840851 
	C652.080750,409.640991 655.523743,419.147278 655.307434,429.406830 
	C655.149414,436.903351 655.109985,444.408752 655.277588,451.904388 
	C655.571960,465.070496 655.504456,478.261749 652.821594,491.160370 
	C651.460693,497.703064 651.988464,504.489105 649.905640,510.810242 
	C645.516602,524.130554 644.345093,538.305298 637.413391,551.060974 
	C633.991272,557.358521 631.712158,564.800842 629.830383,571.961914 
	C627.856628,579.473022 623.299011,585.630188 619.976196,592.341248 
	C616.047852,600.275024 611.635132,608.035217 607.691895,616.019104 
	C605.934875,619.576477 604.001099,623.255249 601.325867,626.108521 
	C595.116394,632.731262 591.270020,641.046143 584.393372,647.356873 
	C578.864990,652.430237 572.577576,655.298645 566.052979,650.924622 
	C559.599365,646.598145 552.602539,645.137695 545.065063,645.202942 
	C543.402283,645.217346 541.715576,645.243042 540.078369,645.001892 
	C521.595703,642.280212 503.706604,646.001770 485.972839,650.364075 
	C479.168274,652.037964 472.546844,654.615112 466.346558,658.259399 
	C462.097809,660.756714 456.813568,660.976929 452.356659,663.455872 
	C444.230927,667.975525 435.817902,671.981018 427.719208,676.545959 
	C424.679047,678.259644 421.141998,676.653015 418.632080,678.142944 
	C408.429474,684.199524 397.044312,686.152466 385.963196,684.592102 
	C375.020325,683.051331 363.874756,680.984924 353.336761,677.029602 
	C352.715271,676.796265 352.104431,676.510254 351.531586,676.175354 
	C340.751434,669.872375 329.268219,673.311707 318.049042,674.010010 
	C316.180878,674.126343 313.551239,674.564209 311.448364,676.631165 
	C316.554993,680.407593 322.348999,682.292969 327.682251,684.288452 
	C335.896393,687.361938 342.816711,693.250061 351.625580,694.817505 
	C352.236450,694.926270 352.882141,695.356140 353.324677,695.816406 
	C359.951721,702.708862 369.276855,704.427063 377.616669,707.356628 
	C389.870270,711.661194 402.991913,712.361511 416.062988,711.702820 
	C423.653992,711.320312 431.064728,709.456848 437.704895,706.289795 
	C441.696686,704.385925 445.239380,701.721680 449.819611,701.708618 
	C460.471527,701.678162 470.751984,701.235779 481.609924,704.517883 
	C492.221680,707.725342 504.103973,708.607239 515.614014,708.921326 
	C528.290894,709.267151 540.684998,708.750366 552.999695,704.587036 
	C565.087585,700.500549 577.497742,698.211853 588.789795,691.137634 
	C596.642700,686.218079 603.153320,679.958801 610.600891,674.763855 
	C613.755127,672.563660 615.984009,669.919922 617.715088,666.186646 
	C619.318665,662.728333 624.258667,661.194763 625.373352,656.754028 
	C625.435303,656.507324 626.601196,656.368591 627.209900,656.462097 
	C628.611816,656.677307 629.326538,656.015991 629.985779,654.893616 
	C634.174988,647.761963 640.808655,642.192566 643.340271,633.987244 
	C643.522034,633.398071 644.027893,632.817688 644.534912,632.433838 
	C652.282471,626.568054 655.135986,618.547852 654.784973,609.144104 
	C654.714233,607.250732 655.674866,606.129150 656.932556,604.915466 
	C659.738708,602.207520 661.616699,599.107849 662.030151,594.961365 
	C662.301697,592.237488 662.442139,589.342590 663.813110,586.727173 
	C666.401001,581.790466 669.220764,576.893005 670.093445,571.286194 
	C671.450378,562.568054 675.214294,554.452148 676.077698,545.569763 
	C676.571289,540.491699 677.672180,535.223389 679.749146,530.602295 
	C683.670044,521.878479 684.209656,512.473877 685.346619,503.404572 
	C686.932068,490.758423 687.450989,477.878418 686.902283,465.043823 
	C686.276672,450.412811 688.699524,435.587921 685.685242,421.176514 
	C683.623901,411.321136 680.478333,401.727051 680.556519,391.513519 
	C680.561157,390.910126 680.169434,390.250153 679.822144,389.705780 
	C675.913086,383.578247 672.586609,377.187073 670.752136,370.099762 
	C670.119995,367.657684 668.924622,365.483948 667.652222,363.312286 
	C662.661560,354.794647 656.922546,346.799316 651.190308,338.773132 
	C640.742432,324.144165 629.573853,310.375519 615.678955,298.642975 
	C608.047607,292.199310 601.798523,284.157013 593.328308,278.367493 
	C587.521118,274.398132 582.971802,268.736115 576.869629,264.889221 
	C568.389465,259.543213 558.515381,257.083374 550.184875,251.432541 
	C548.287354,250.145416 546.704285,248.387772 544.501831,247.486481 
	C536.261719,244.114456 528.079895,240.552261 519.917725,237.049423 
	C502.324005,229.498932 483.464691,226.849869 465.377716,221.308411 
	C451.120728,216.940384 436.033661,217.746552 421.273773,217.259628 
	C406.146149,216.760605 390.984833,216.973587 375.858276,218.307190 
	C365.418640,219.227585 355.062134,220.202271 344.789581,222.620132 
	C337.865448,224.249878 332.137909,228.927170 324.695038,229.192413 
	C318.651917,229.407761 313.128723,232.069031 307.612305,234.720230 
	C301.948456,237.442291 295.589722,238.702255 289.624939,240.677231 
	C282.970764,242.880478 276.619568,245.415344 270.394165,248.495636 
	C265.470734,250.931717 260.573486,253.432739 255.558792,255.667419 
	C253.094513,256.765533 250.850830,258.000793 248.809204,259.804260 
	C242.868347,265.052155 236.560089,269.943207 230.249146,274.645264 
	C220.968246,281.560059 211.976395,288.758331 203.075363,296.129211 
	C200.899033,297.931427 200.148590,300.535706 198.075516,302.189087 
	C192.444199,306.680237 188.490402,312.802399 182.971558,317.453705 
	C176.942230,322.535248 173.917908,330.344757 168.584152,335.726074 
	C161.015396,343.362244 156.463882,352.894043 149.734161,360.943420 
	C145.701294,365.767059 144.728806,372.227203 140.749039,377.356781 
	C136.997635,382.192047 133.398727,387.793427 132.258881,394.105530 
	C130.959732,401.299744 128.123550,407.915192 125.331886,414.521881 
	C123.565315,418.702606 121.880577,422.820709 121.339722,427.317474 
	C120.835297,431.511353 119.707108,435.550842 117.692986,439.187714 
	C115.788864,442.626038 114.776978,446.193451 114.213760,450.014038 
	C112.857643,459.213196 113.099785,468.639587 110.478676,477.650452 
	C108.252892,485.302277 109.659119,493.083313 108.865616,501.666534 
	C112.614082,495.860962 110.940819,489.713837 113.291481,484.562164 
	C116.364182,477.828033 117.585968,470.556580 121.200821,463.787506 
	C126.190659,454.443695 129.108932,443.912140 133.422607,434.087341 
	C136.558685,426.944641 140.026398,419.647369 144.552994,413.660278 
	C149.026642,407.743195 149.788620,400.175415 155.182327,394.757355 
	C156.985138,392.946381 159.669785,390.306366 160.398819,387.285004 
	C162.011917,380.599854 167.646896,376.333832 170.193466,370.268066 
	C171.368607,367.468903 174.645645,366.985718 176.081329,364.371948 
	C179.433563,358.268890 183.808762,352.854767 188.536148,347.775421 
	C192.620514,343.386963 198.038727,340.222412 199.832947,333.828217 
	C200.356033,331.964050 202.336426,329.532654 204.037949,329.165710 
	C208.430420,328.218445 210.428528,324.591827 213.507217,322.214478 
	C230.411987,309.160767 248.395050,298.944855 270.291931,296.350189 
	C283.164856,294.824768 295.899414,292.683319 308.939148,292.465546 
	C320.187134,292.277679 331.514435,292.042206 342.510071,288.682220 
	C347.270325,287.227631 351.634033,284.228943 356.749146,284.242310 
	C372.442596,284.283325 386.372650,277.107483 401.175507,273.536316 
	C410.502563,271.286194 419.299835,267.291351 429.392883,268.370361 
	C437.273865,269.212891 444.107880,272.314789 449.270874,277.507782 
	C455.504272,283.777313 461.124359,290.583710 468.282684,295.969055 
	C480.397522,305.083221 490.746124,316.465088 504.160919,323.934448 
	C506.313629,325.133057 508.758820,326.243713 510.283356,328.055817 
	C516.231873,335.126526 524.697327,338.405212 532.444580,342.390320 
	C544.068420,348.369568 555.026794,355.172791 565.149597,363.347900 
	C569.482971,366.847443 572.467163,371.434509 574.541565,376.684570 
	C581.383240,393.999756 585.449097,411.973206 587.457947,430.427917 
	C588.479187,439.809906 589.721619,449.144073 591.648804,458.385712 
	C592.448975,462.222809 591.479065,466.052826 591.107910,469.824524 
	C590.142090,479.637665 594.000549,488.825684 594.297668,498.450226 
	C594.502869,505.093689 592.583435,506.808411 586.331787,504.340790 
	C578.012634,501.057098 570.989014,495.850403 565.014099,489.088715 
	C561.129700,484.692810 559.848755,478.799835 555.574463,473.635406 
	C555.458496,475.906006 555.324524,477.333466 555.322021,478.761169 
	C555.294922,494.260498 555.297791,509.759888 555.271851,525.259216 
	C555.261414,531.505676 553.202820,532.649292 547.295105,530.285645 
	C543.607727,528.810303 541.172852,525.740234 538.265320,523.446960 
	C529.877625,516.831421 523.395813,508.217957 521.792542,497.475220 
	C520.605591,489.522003 518.648132,481.501556 519.543518,473.272491 
	C519.714905,471.697815 519.205811,469.942230 518.628113,468.414795 
	C517.358826,465.058716 517.035706,461.714691 517.433838,458.134583 
	C518.234131,450.939880 516.851318,443.861206 516.661255,436.155273 
	C514.969360,437.337494 515.164978,438.211243 515.095642,438.995758 
	C513.810364,453.542145 513.776245,468.203125 510.188660,482.525360 
	C508.136780,490.716858 505.649628,492.038269 498.599518,487.134521 
	C492.799133,483.099976 488.272034,477.789032 484.740631,471.696625 
	C483.586243,469.705078 482.516998,467.746399 479.950073,468.075684 
	C475.960876,468.587433 474.484253,466.197021 472.942230,463.140167 
	C468.986328,455.297913 465.274139,447.250000 460.464325,439.942657 
	C454.735443,431.238953 446.438843,424.493134 440.758789,415.616730 
	C437.605774,410.689362 432.304047,407.659393 428.530457,403.237915 
	C424.553619,398.578308 420.233795,394.025116 420.680603,387.162567 
	C420.829102,384.882019 420.239624,382.110809 423.645172,381.835999 
	C426.511078,381.604767 429.526123,380.833893 430.961578,384.947937 
	C433.092163,391.054230 437.571899,395.434265 442.201416,399.923157 
	C449.795074,407.286133 458.048615,414.021332 463.787994,423.339203 
	C465.827667,426.650574 468.390137,430.606903 472.104156,433.535614 
	C473.471436,429.966980 472.954773,426.982971 471.724609,424.602020 
	C469.605377,420.500244 469.331726,416.019318 468.165924,411.741425 
	C467.404572,408.947754 466.044678,406.664062 464.609253,404.202026 
	C459.881134,396.092407 452.349762,390.359650 447.104279,382.735229 
	C445.450531,380.331451 444.729095,377.449585 446.647552,375.375580 
	C448.351471,373.533508 451.208496,373.866882 453.641541,375.072266 
	C465.616028,381.004700 472.623688,391.843658 478.616089,402.775909 
	C487.113068,418.277374 488.428284,436.267975 493.188995,453.087555 
	C494.699799,458.425232 494.755402,464.254242 499.023987,469.585724 
	C499.023987,456.206268 498.748169,443.706390 499.102386,431.224426 
	C499.449097,419.007965 496.618195,407.968140 489.059052,398.256653 
	C488.178162,397.124908 487.872314,395.809540 488.682220,394.531525 
	C489.570557,393.129852 491.156097,393.039062 492.200989,393.862854 
	C495.934113,396.805939 500.727814,397.514343 504.622711,400.170715 
	C510.943878,404.481873 513.936646,410.889587 517.637451,417.274536 
	C522.750122,426.095367 525.370117,435.676056 527.764893,445.121033 
	C532.163086,462.467133 530.401489,480.748413 534.137695,498.334106 
	C535.026733,502.518799 536.338928,505.758087 540.240112,507.713531 
	C541.375488,506.236023 541.335205,504.735260 541.251404,503.235840 
	C540.171448,483.917297 540.827087,464.583069 540.708191,445.255798 
	C540.684875,441.466187 540.380859,438.027283 539.050903,434.083710 
	C535.862183,424.628815 531.126160,415.763855 528.368958,406.345917 
	C526.257507,399.133698 521.890137,397.637146 516.147949,396.413513 
	C514.523376,396.067291 512.895630,395.607727 511.250793,395.509216 
	C506.996460,395.254333 504.570770,392.147888 501.775391,389.636261 
	C500.523193,388.511139 500.404663,386.922089 501.150085,385.498505 
	C501.930115,384.008789 503.360352,384.335236 504.681183,384.727814 
	C509.978851,386.302460 515.380127,386.858521 520.908813,386.754822 
	C525.734436,386.664307 530.569885,386.876862 535.395264,387.087769 
	C538.056885,387.204071 540.988708,388.052765 540.364685,391.264587 
	C539.719116,394.587524 541.240723,397.274109 541.483093,400.065979 
	C542.280273,409.248291 547.632568,415.757629 552.431396,422.670013 
	C555.552124,427.165131 558.427734,432.085876 560.432678,436.833496 
	C562.452454,441.616241 563.503906,447.546265 563.698364,453.131653 
	C563.910706,459.230713 565.637085,464.976440 567.466492,470.634033 
	C569.156311,475.860016 571.495117,480.980774 576.057007,484.468018 
	C577.894287,483.480957 577.557068,482.182434 577.338989,480.826202 
	C574.865540,465.441681 571.422058,450.176239 570.468811,434.601593 
	C570.054138,427.826813 565.182251,422.429688 565.685303,415.556824 
	C565.895386,412.686584 565.025818,409.903778 563.975220,407.296539 
	C561.244385,400.519592 559.452209,392.927521 555.106567,387.362091 
	C550.833862,381.890076 547.076111,374.247955 538.110779,374.184906 
	C535.958984,374.169769 534.913818,372.725525 534.335327,370.794128 
	C533.780701,368.942627 533.113281,367.124939 532.532349,365.402069 
	C530.094910,365.178589 528.576843,366.226562 527.706360,367.927551 
	C526.444397,370.393677 524.269897,371.430420 521.893982,372.302917 
	C508.948395,377.056793 495.555176,375.578461 482.346497,374.486267 
	C478.813568,374.194122 474.852661,373.572968 471.251221,372.103027 
	C465.853333,369.899902 460.309753,368.024658 454.751343,366.250549 
	C445.393494,363.263794 435.585327,364.563782 426.016968,363.517548 
	C424.230164,363.322113 422.218872,363.130676 420.604553,363.728973 
	C406.910126,368.804596 393.795593,374.781769 383.296143,385.542023 
	C380.889557,388.008423 378.038391,390.517914 375.033386,392.398590 
	C367.726898,396.971283 360.416138,401.544647 352.944519,405.875122 
	C343.235687,411.502350 332.851349,413.078339 322.216797,414.002960 
	C312.390625,414.857330 302.882782,411.818939 293.248718,410.383606 
	C292.154266,410.220581 291.504944,409.501068 290.846344,408.738190 
	C288.858246,406.435516 286.147858,405.318848 283.609497,403.802887 
	C280.291382,401.821289 276.085266,401.817810 273.417236,399.208954 
	C270.259460,396.121216 265.917480,394.983154 262.845276,391.668610 
	C260.977356,389.653351 257.412262,389.414215 255.136887,387.285553 
	C253.440079,385.698120 251.706100,386.553162 250.225082,387.842163 
	C242.455704,394.604248 235.824097,402.498230 230.047409,410.881073 
	C223.175110,420.853821 217.390137,431.584045 211.291580,442.077606 
	C209.042938,445.946747 206.121841,449.376190 204.567276,453.724457 
	C202.305481,460.051025 199.588028,466.219299 196.943726,472.403259 
	C193.842377,479.656097 190.243408,486.727417 188.508377,494.479401 
	C187.927994,497.072571 187.754349,499.790588 186.515091,502.165527 
	C180.412827,513.860046 178.772751,526.809082 178.556793,539.447266 
	C178.180161,561.490234 176.003891,583.731018 181.017334,605.599670 
	C184.102020,619.055054 186.354767,632.628784 192.218262,645.471680 
	C195.882156,653.496826 200.804825,661.054199 203.649170,669.130615 
	C207.738953,680.743408 217.583755,687.656494 223.358215,697.790039 
	C227.104584,704.364624 233.552170,709.634033 238.646805,715.634521 
	C247.274338,725.796082 259.179382,732.469849 268.135223,742.360840 
	C268.769104,743.060974 269.950500,743.241028 270.669922,743.892029 
	C274.539093,747.393616 280.532410,747.590942 283.689819,751.883301 
	C285.100586,753.801208 286.674957,754.738525 288.635071,755.670959 
	C296.699890,759.507263 304.888611,763.114014 312.216278,768.350525 
	C313.507111,769.272949 315.072632,769.885498 314.155426,771.695190 
	C313.341858,773.300354 311.633270,773.093567 310.147552,772.691772 
	C300.690460,770.134521 291.243164,767.541016 281.793091,764.957825 
	C280.653015,764.646179 279.702362,764.120056 278.862823,763.198303 
	C275.226013,759.205139 269.991821,757.578674 265.682556,754.517395 
	C259.125488,749.859192 251.372009,746.754150 245.258347,741.637207 
	C238.281235,735.797607 231.284622,729.968384 224.285446,724.144104 
	C221.753723,722.037415 219.355392,719.530518 217.614746,716.755493 
	C210.816391,705.917419 200.791367,697.711792 194.149414,686.562378 
	C190.224930,679.974548 185.936646,673.322632 181.669144,666.826111 
	C175.484528,657.411255 172.720612,646.145874 168.463623,635.747192 
	C164.137695,625.180176 162.494965,613.317078 160.953476,601.849976 
	C157.956284,579.554077 157.348175,557.145203 160.921921,534.785156 
	C161.996109,528.064331 161.989136,521.168213 163.821426,514.575562 
	C169.290436,494.897308 174.905472,475.292877 183.763336,456.740234 
	C186.898041,450.174652 190.170929,443.642822 193.095688,436.942200 
	C199.513733,422.238617 211.117340,410.558746 218.485641,396.304871 
	C218.560303,396.160461 218.672928,396.015228 218.804825,395.923767 
	C227.924805,389.599976 234.505096,380.652405 242.457367,373.134430 
	C248.912933,367.031403 254.684204,367.321259 261.640350,372.844696 
	C264.497803,375.113678 267.282166,377.541748 270.733704,378.910492 
	C290.105835,386.592529 309.720490,388.212311 330.135376,382.868011 
	C340.808563,380.073944 349.192963,373.835205 356.726715,366.911499 
	C372.907166,352.041260 391.737366,345.231781 413.252594,344.764221 
	C423.250183,344.546936 432.957916,345.598145 442.775848,348.514954 
	C455.561951,352.313629 468.603760,355.643524 481.204376,359.820709 
	C494.525879,364.236847 507.175385,360.983734 521.190125,361.564972 
	C512.650513,357.666138 504.595337,356.042969 497.426178,352.100311 
	C489.888092,347.954773 482.284607,344.027405 474.209412,340.900024 
	C469.955811,339.252686 465.114685,338.287933 461.628357,335.059753 
	C453.817383,327.827209 443.619415,325.009552 434.425171,320.482941 
	C428.240845,317.438171 421.568726,314.622620 414.127991,314.638733 
	C405.384918,314.657684 397.194427,310.392059 388.162292,311.206421 
	C380.225616,311.921997 371.966064,310.388611 364.251892,311.901825 
	C354.662384,313.782959 344.956116,314.750305 335.371796,316.600433 
	C323.824280,318.829468 312.056000,319.909607 300.290070,320.595978 
	C291.470703,321.110382 283.009247,324.922516 274.464050,325.046600 
	C260.761749,325.245575 249.171707,331.071594 237.766769,336.698181 
	C222.892761,344.036255 208.818893,352.938080 196.812836,364.981964 
	C186.582352,375.244751 177.251862,386.233521 169.357040,398.153137 
	C162.507996,408.493866 156.186768,419.354523 150.551804,430.473907 
	C148.695023,434.137848 145.021988,436.588806 144.437286,441.064209 
	C143.323380,449.590027 139.646530,457.295227 136.138290,465.041016 
	C134.768570,468.065186 132.823227,471.241028 132.780289,474.370270 
	C132.682266,481.513275 128.912460,487.498627 127.101425,494.009644 
	C124.194984,504.458893 122.195030,515.064026 120.497864,525.630859 
	C117.315735,545.443481 119.348755,565.545166 119.458847,585.515381 
	C119.486031,590.447449 118.988998,595.982422 121.675995,600.525208 
	C123.107872,602.946045 123.965996,605.309814 124.127975,607.958130 
	C124.431084,612.913940 125.337044,617.567200 126.873520,622.429626 
	C131.786850,637.978638 138.580383,652.679504 146.018768,667.040283 
	C148.659927,672.139343 150.722290,677.741455 154.924179,682.274658 
	C156.936310,684.445557 160.475830,686.162109 160.886536,689.258972 
	C162.103424,698.434814 169.269440,703.933044 174.424423,710.157104 
	C180.932755,718.015198 188.426651,725.367615 195.245102,732.985168 
	C201.697037,740.193176 211.596649,743.577271 215.902786,752.766724 
	C216.139557,753.272034 216.951569,753.565186 217.551010,753.834167 
	C222.254608,755.945007 226.507294,758.599365 229.885529,762.645447 
	C231.352097,764.401978 232.314697,766.598145 234.464981,767.837341 
	C245.479431,774.185181 255.985077,781.560303 267.883911,786.132324 
	C271.558044,787.544067 274.458710,790.069885 278.294586,791.365112 
	C283.330231,793.065491 289.209869,794.436035 293.092255,798.025146 
	C297.250305,801.868896 301.690887,802.631287 306.673462,802.941040 
	C308.498505,803.054504 310.389465,802.763733 311.735077,804.422668 
	C313.367676,806.435425 315.649841,806.585144 318.012329,806.918640 
	C322.519226,807.554565 327.463654,807.161438 330.601898,811.664551 
	C331.421539,812.840637 333.010406,812.677124 334.335999,812.666626 
	C337.203613,812.643799 339.954987,813.238342 342.680054,814.049805 
	C352.152618,816.870300 361.989899,818.530945 371.709198,818.509766 
	C396.655975,818.455444 421.669800,820.506775 446.555878,816.770142 
	C458.006561,815.050720 470.208618,817.075684 480.417908,809.484253 
	C481.252502,808.863647 482.692566,808.740417 483.802612,808.855591 
	C495.966400,810.117554 505.752655,803.103271 516.232483,799.039734 
	C523.373230,796.270935 530.164062,792.522827 537.658630,790.493286 
	C540.556580,789.708496 543.513489,788.495361 545.501892,786.313965 
	C547.959473,783.617798 551.075562,782.462097 554.050537,780.725342 
	C560.067505,777.212708 567.405518,775.330261 572.168030,770.575684 
	C580.416809,762.340637 590.073364,756.187805 599.163330,749.185120 
	C605.032532,744.663757 611.034729,740.032532 616.168030,734.927551 
	C621.825562,729.301208 626.549988,722.669006 633.037415,717.733826 
	C637.885925,714.045471 641.645569,709.476196 644.021790,703.774414 
	C646.473755,697.890869 650.424194,692.637695 655.133911,688.840271 
	C659.074219,685.663086 660.640259,682.122681 661.729980,677.827026 
	C662.102783,676.357361 662.385132,674.923645 663.352783,673.707947 
	C667.550964,668.433350 670.218567,662.190186 674.100647,656.648254 
	C676.979614,652.538391 680.299438,648.225525 681.948792,642.950012 
	C683.581238,637.728638 683.806274,631.786011 686.835266,627.355469 
	C690.316040,622.264038 690.999878,616.677124 692.356873,611.112915 
	C692.672119,609.820374 692.798157,608.439636 693.343201,607.251831 
	C697.323181,598.578674 700.000916,589.576965 701.257996,580.078552 
	C702.915833,567.552185 705.978516,555.130615 706.632446,542.570007 
	C707.843567,519.308899 706.826477,495.994781 705.716614,472.719025 
	C705.637573,471.061218 705.312683,469.576447 703.244019,468.061340 
	C703.244019,471.405273 703.215210,474.039612 703.248718,476.673157 
	C703.455444,492.908508 699.163025,508.476929 696.062805,524.208191 
	C695.495605,527.086487 694.336060,529.822937 694.054688,532.858643 
	C693.319397,540.790771 693.572510,549.158142 691.009033,556.506836 
	C685.373047,572.663879 681.940491,589.470215 675.654968,605.428589 
	C672.081177,614.502258 668.797729,623.537048 663.950684,632.139221 
	C658.142700,642.446716 653.953125,653.666077 648.801392,665.203308 
z"
              />
              <path
                fill="#eb781a"
                opacity="1.000000"
                stroke="none"
                d="
M419.995697,492.035309 
	C417.862701,499.331787 409.935242,501.002045 406.693542,507.040314 
	C404.563995,511.006958 402.707947,515.341736 399.408600,518.821411 
	C395.798126,516.587769 397.132080,513.258972 397.036560,510.533478 
	C396.757233,502.562531 396.775513,502.358948 388.738892,501.371887 
	C385.490234,500.972870 383.949829,500.229004 386.234772,496.743805 
	C387.719025,494.479919 389.145813,492.550720 391.640564,491.157379 
	C397.085297,488.116394 398.648010,482.022339 400.508728,476.884918 
	C402.863647,470.383026 407.091125,464.735779 408.439148,457.763062 
	C409.028442,454.715179 412.310059,455.528870 414.748535,456.014557 
	C416.006165,459.367981 414.553345,462.106781 413.524689,464.857819 
	C411.742096,469.625275 410.971802,474.388611 411.931335,479.523895 
	C412.541290,482.788147 413.954346,484.212708 417.203033,484.074799 
	C418.860291,484.004456 420.546906,484.036652 422.185059,484.269775 
	C423.839874,484.505280 426.194855,483.731079 426.580933,486.411163 
	C426.907166,488.675995 425.212830,489.593292 423.470184,490.365631 
	C422.406372,490.837158 421.352325,491.330750 419.995697,492.035309 
z"
              />
              <path
                fill="#eb781a"
                opacity="1.000000"
                stroke="none"
                d="
M464.015869,576.028076 
	C478.249115,564.561951 489.807465,550.722107 503.182983,539.118713 
	C504.782654,539.983459 505.012817,541.002502 504.589966,541.961487 
	C501.494995,548.981384 498.015472,555.825989 492.232758,561.041260 
	C489.360748,563.631470 487.654907,567.062805 485.729614,570.115906 
	C484.002930,572.854065 482.240631,575.617554 479.705536,577.038269 
	C472.127136,581.285400 465.848877,587.359009 457.931335,591.299988 
	C453.598175,593.456848 449.634979,597.390381 445.268158,600.257874 
	C441.353485,602.828613 436.612762,603.500305 432.828247,606.342285 
	C431.608978,607.257996 429.591003,606.930481 428.374268,605.124390 
	C429.480713,601.225769 432.718689,599.401794 435.996643,597.862610 
	C440.419098,595.786011 444.750488,593.439087 447.771637,589.667969 
	C452.248016,584.080383 458.958618,581.352844 464.015869,576.028076 
z"
              />
              <path
                fill="#eb781a"
                opacity="1.000000"
                stroke="none"
                d="
M349.694824,783.846008 
	C352.993042,784.149719 356.438324,782.500305 358.653931,785.117981 
	C361.136505,788.051208 359.929932,792.574158 362.395233,795.716248 
	C362.546112,795.908630 362.182312,796.657898 361.894867,797.017761 
	C357.999054,801.894531 343.874786,806.298950 337.861023,804.580444 
	C336.651581,804.234802 335.599915,803.742859 335.501190,802.374756 
	C335.391693,800.856567 335.443695,798.899719 336.955688,798.402832 
	C341.167206,797.018921 340.657227,794.071228 340.253021,790.759155 
	C339.838379,787.361023 340.717468,784.630371 345.108673,785.322876 
	C346.773438,785.585449 347.808502,784.128235 349.694824,783.846008 
z"
              />
              <path
                fill="#eb781a"
                opacity="1.000000"
                stroke="none"
                d="
M291.230591,276.629272 
	C286.147552,279.278381 281.108704,278.312897 276.250580,277.665161 
	C272.480560,277.162537 271.227264,272.542908 273.962067,269.466217 
	C276.690094,266.397186 279.723938,263.544220 282.922852,260.967987 
	C285.299591,259.053925 288.369202,258.593445 291.443573,258.842255 
	C296.915741,259.285095 299.723053,263.600891 297.626465,268.716705 
	C296.367126,271.789520 294.569702,274.626282 291.230591,276.629272 
z"
              />
              <path
                fill="#eb781a"
                opacity="1.000000"
                stroke="none"
                d="
M217.841644,466.766479 
	C215.225235,459.534515 218.879410,454.500275 222.969742,449.842712 
	C225.099579,447.417572 227.947235,447.909119 229.724121,450.552612 
	C233.374390,455.983154 232.533920,463.729492 228.058151,468.547821 
	C225.055939,471.779877 220.358627,471.128479 217.841644,466.766479 
z"
              />
              <path
                fill="#eb781a"
                opacity="1.000000"
                stroke="none"
                d="
M352.765564,432.781799 
	C353.652618,430.766754 354.548798,429.152954 355.077850,427.426605 
	C355.881195,424.805389 356.472565,422.221100 360.165192,422.729614 
	C362.524567,423.054535 365.431152,422.157166 366.442352,425.362915 
	C367.445923,428.544495 367.323395,431.445343 364.191284,433.726257 
	C360.504639,436.411011 361.206573,441.642395 358.016205,445.380707 
	C356.232117,442.299042 352.333527,443.288147 350.611877,441.096466 
	C348.260986,438.103638 351.180420,435.627869 352.765564,432.781799 
z"
              />
              <path
                fill="#eb781a"
                opacity="1.000000"
                stroke="none"
                d="
M510.387024,591.651855 
	C515.127258,587.388245 519.265076,586.978271 521.866638,590.164307 
	C524.156250,592.968323 523.401123,602.709900 520.733948,604.776062 
	C517.620239,607.188171 512.103027,604.477600 511.173187,599.917480 
	C510.645203,597.328064 510.536987,594.653015 510.387024,591.651855 
z"
              />
              <path
                fill="#eb781a"
                opacity="1.000000"
                stroke="none"
                d="
M454.902374,624.110779 
	C455.736664,629.476379 451.957397,631.599365 448.806274,633.782410 
	C447.149445,634.930359 444.859985,634.230835 443.435883,632.510925 
	C441.192566,629.801697 440.282410,626.706421 441.394592,623.242737 
	C442.670044,619.270630 446.002625,618.912231 449.422516,618.854004 
	C452.676483,618.798584 454.924774,619.982178 454.902374,624.110779 
z"
              />
              <path
                fill="#eb781a"
                opacity="1.000000"
                stroke="none"
                d="
M558.047852,570.692261 
	C564.110535,571.837891 567.486816,578.398682 564.979370,583.336121 
	C563.542603,586.165344 556.154053,585.612732 553.935852,582.510071 
	C551.141602,578.601685 553.027466,572.565735 558.047852,570.692261 
z"
              />
              <path
                fill="#eb781a"
                opacity="1.000000"
                stroke="none"
                d="
M593.957947,545.015381 
	C596.520691,543.285645 599.131531,542.258240 600.532593,545.340332 
	C601.828003,548.189941 602.206482,551.695312 598.998230,553.814270 
	C596.495483,555.467224 592.681274,556.864380 590.886047,554.228210 
	C588.810486,551.180420 590.783203,547.668335 593.957947,545.015381 
z"
              />
              <path
                fill="#eb781a"
                opacity="1.000000"
                stroke="none"
                d="
M463.109863,688.666992 
	C462.713898,691.414612 461.239166,692.747498 458.988617,692.496582 
	C456.516815,692.221069 456.888245,689.929138 456.670258,688.177246 
	C456.608887,687.684082 456.556702,687.187805 456.539978,686.691589 
	C456.464600,684.452698 454.537201,681.216736 458.573425,680.845581 
	C461.991394,680.531311 462.665009,683.565552 463.113861,686.272949 
	C463.220917,686.918701 463.137665,687.596008 463.109863,688.666992 
z"
              />
              <path
                fill="#eb781a"
                opacity="1.000000"
                stroke="none"
                d="
M353.748657,250.188080 
	C351.230469,250.101089 348.783539,250.645050 347.930939,247.837662 
	C347.432831,246.197556 347.367920,244.460281 348.757568,243.174820 
	C350.449585,241.609665 352.468384,241.857300 354.375305,242.691910 
	C357.891479,244.230850 357.774963,247.491653 353.748657,250.188080 
z"
              />
              <path
                fill="#eb781a"
                opacity="1.000000"
                stroke="none"
                d="
M235.976196,758.103638 
	C235.541031,757.317993 235.270966,756.876404 235.194611,756.403442 
	C234.854401,754.295715 234.334213,751.978455 236.605072,750.685364 
	C237.792114,750.009399 239.173462,750.666870 240.024872,751.867554 
	C241.247284,753.591431 242.992386,755.361877 241.782822,757.608521 
	C240.471161,760.044861 238.271835,759.374756 235.976196,758.103638 
z"
              />
              <path
                fill="#eb781a"
                opacity="1.000000"
                stroke="none"
                d="
M510.098785,261.041016 
	C510.116852,262.669189 510.697968,264.065948 509.063354,265.187927 
	C505.909790,264.006042 502.916901,262.473633 502.093018,258.661530 
	C501.852936,257.550690 502.953613,256.971649 504.007080,256.869659 
	C506.969879,256.582794 509.161896,257.589233 510.098785,261.041016 
z"
              />
              <path
                fill="#eb781a"
                opacity="1.000000"
                stroke="none"
                d="
M302.175629,482.099365 
	C300.027039,483.499207 298.437164,483.353943 297.428986,481.256714 
	C296.829712,480.009979 296.742249,478.675323 297.822052,477.616241 
	C298.878937,476.579773 300.276672,476.537384 301.472778,477.162048 
	C303.543488,478.243469 303.253174,480.017548 302.175629,482.099365 
z"
              />
              <path
                fill="#eb781a"
                opacity="1.000000"
                stroke="none"
                d="
M248.311432,461.570831 
	C248.102875,458.346283 249.781311,457.507996 252.272034,458.034454 
	C253.758301,458.348572 254.581726,459.646790 253.861481,461.006256 
	C252.582352,463.420715 250.560028,463.196350 248.311432,461.570831 
z"
              />
            </svg>